<?xml version="1.0" encoding="utf-8"?>
<!-- Generator: Adobe Illustrator 25.2.3, SVG Export Plug-In . SVG Version: 6.00 Build 0)  -->
<svg version="1.1" id="Calque_1" xmlns:svgjs="http://svgjs.com/svgjs"
	 xmlns="http://www.w3.org/2000/svg" xmlns:xlink="http://www.w3.org/1999/xlink" x="0px" y="0px" viewBox="0 0 512 512"
	 style="enable-background:new 0 0 512 512;" xml:space="preserve">
<style type="text/css">
	.st0{fill:#7989BC;}
	.st1{fill:#434980;}
</style>
<polygon class="st0" points="31.6,250.4 117.2,242.2 161.6,263.5 276.2,187.9 303.3,134.4 314.7,104.5 340.5,92.8 363.1,111.1 
	369.9,147.1 364.5,192.4 355.9,230 384.8,235.4 456.3,237.2 487.3,253.1 478.6,295.4 480.4,322.8 479.9,352.2 463.2,374 
	467.7,397.1 467.7,420.2 449.6,438.3 448.7,462.3 440.1,488.1 400.2,499.4 350.4,497.2 291.1,497.2 234.1,489 191.9,481.9 
	158,474.1 121.3,495.3 78.7,499.4 31.6,497.6 24.8,479.9 "/>
<g>
	<g>
		<g>
			<path class="st1" d="M503.6,272.2c0-26-21.1-47.1-47.1-47.1h-16h-69.3c13.2-23.9,20.3-46.5,20.3-77.7v-5c0,0,0,0,0,0
				c0-16.8-6.5-32.6-18.3-44.6c-11.8-11.9-27.5-18.7-44.2-18.9c-0.2,0-0.3,0-0.5,0c-16.2,0-30.5,12.9-31.8,29
				c-6.4,76.8-80.3,116.3-129.8,140.4v-7.9c0-8.3-6.7-15-15-15H23.5c-8.3,0-15,6.7-15,15v256.5c0,8.3,6.7,15,15,15h96.2
				c18.4,0,34.4-10.6,42.1-26.1c53.5,23.2,100,26.3,153.4,26.3c9.1,0,18.5-0.1,28-0.2c10.6-0.1,21.6-0.2,33.1-0.2h47.5
				c26,0,47.1-21.1,47.1-47.1c0-8.7-2.4-16.9-6.5-23.9c13.5-8.3,22.6-23.2,22.6-40.2c0-8.7-2.4-16.9-6.5-23.9
				c13.5-8.3,22.6-23.2,22.6-40.2c0-12.2-4.7-23.4-12.4-31.8C498.6,296.1,503.6,284.7,503.6,272.2z M136.7,464.7c0,9.4-7.6,17-17,17
				h-17v-49.1c0-8.3-6.7-15-15-15s-15,6.7-15,15v49.1H38.5V255.3h98.2L136.7,464.7L136.7,464.7z M424.4,319.3h16h15.5
				c9.4,0,17,7.6,17,17s-7.6,17-17,17h-15.5h-0.6h-15.5c-8.3,0-15,6.7-15,15s6.7,15,15,15h15.5c9.4,0,17,7.6,17,17s-7.6,17-17,17
				h-16c-8.3,0-15,6.7-15,15s6.7,15,15,15c9.4,0,17,7.6,17,17s-7.6,17-17,17h-47.5c-11.6,0-22.7,0.1-33.4,0.2
				c-67,0.6-116.2,1.1-176-26.7V281.5h0c1.6-0.8,3.2-1.5,4.8-2.3c26.1-12.6,61.9-29.8,92.7-56c37.7-32,58.6-70,62.1-112.9
				c0-0.5,1-1.4,1.8-1.4c0,0,0,0,0,0c18.2,0.3,32.9,15.3,32.9,33.5v5c0,31.2-8.1,51-25.2,77.7h-23.9c-8.3,0-15,6.7-15,15
				c0,8.3,6.7,15,15,15h32.2c0,0,0,0,0,0h96h16c9.4,0,17,7.6,17,17s-7.6,17-17,17h-16h-16c-8.3,0-15,6.7-15,15
				C409.4,312.5,416.1,319.3,424.4,319.3z"/>
		</g>
	</g>
	<g>
		<g>
			<path class="st1" d="M472.3,111.1h-32.1c-8.3,0-15,6.7-15,15s6.7,15,15,15h32.1c8.3,0,15-6.7,15-15
				C487.3,117.8,480.6,111.1,472.3,111.1z"/>
		</g>
	</g>
	<g>
		<g>
			<path class="st1" d="M247.9,111.1h-32.1c-8.3,0-15,6.7-15,15s6.7,15,15,15h32.1c8.3,0,15-6.7,15-15
				C262.9,117.8,256.2,111.1,247.9,111.1z"/>
		</g>
	</g>
	<g>
		<g>
			<path class="st1" d="M309,35.3L293,7.5c-4.1-7.2-13.3-9.7-20.5-5.5c-7.2,4.2-9.6,13.3-5.5,20.5l16,27.8c2.8,4.8,7.8,7.5,13,7.5
				c2.5,0,5.1-0.6,7.5-2C310.7,51.7,313.1,42.5,309,35.3z"/>
		</g>
	</g>
	<g>
		<g>
			<path class="st1" d="M415.7,2c-7.2-4.2-16.4-1.7-20.5,5.5l-16,27.8c-4.2,7.2-1.7,16.4,5.5,20.5c2.4,1.4,5,2,7.5,2
				c5.2,0,10.2-2.7,13-7.5l16-27.8C425.4,15.4,422.9,6.2,415.7,2z"/>
		</g>
	</g>
</g>
</svg>
